<svg xmlns="http://www.w3.org/2000/svg" xmlns:xlink="http://www.w3.org/1999/xlink" viewBox="0 0 1122 1122"><defs><style>.cls-1,.cls-2,.cls-3,.cls-7{fill:none;}.cls-2,.cls-3,.cls-7{stroke-linecap:round;stroke-width:7px;stroke-dasharray:12;}.cls-2,.cls-3,.cls-6,.cls-7{stroke-miterlimit:10;}.cls-2{stroke:url(#linear-gradient);}.cls-3{stroke:url(#linear-gradient-2);}.cls-4{fill:red;}.cls-5,.cls-6{fill:#fff;}.cls-6{stroke:#fff;}.cls-7{stroke:url(#linear-gradient-3);}</style><linearGradient id="linear-gradient" x1="377.79" y1="14.44" x2="641.24" y2="14.44" gradientTransform="matrix(-0.79, 0.54, 0.57, 0.82, 1261.08, -40.24)" gradientUnits="userSpaceOnUse"><stop offset="0" stop-color="#ff2229"/><stop offset="0.14" stop-color="#fa2229"/><stop offset="0.29" stop-color="#ed2229"/><stop offset="0.45" stop-color="#d72229"/><stop offset="0.61" stop-color="#b72229"/><stop offset="0.78" stop-color="#8f2229"/><stop offset="0.95" stop-color="#5f2229"/><stop offset="1" stop-color="#4f2229"/></linearGradient><linearGradient id="linear-gradient-2" x1="1098.66" y1="371.69" x2="1237.14" y2="371.69" gradientTransform="matrix(0.06, 0.54, -0.05, 0.82, 515.75, -40.25)" xlink:href="#linear-gradient"/><linearGradient id="linear-gradient-3" x1="29.36" y1="269.91" x2="292.8" y2="269.91" gradientTransform="translate(267.48 -40.24) rotate(34.64) scale(0.95 1)" xlink:href="#linear-gradient"/></defs><g id="BG"><rect class="cls-1" width="1122" height="1122"/><path class="cls-2" d="M965.84,172.86c-7.1-2-70.48-18.12-122.31,28.5-41.76,37.56-59.25,100.82-44.4,160.91"/><path class="cls-3" d="M570.1,825.56q.87,30.15,1.75,62.13,1.18,43.24,2.28,85.54"/></g><g id="Object"><path class="cls-4" d="M860.84,551.37a283.7,283.7,0,0,0-3.11-34.09l-59.38-9.84-20.13-56.18,39.57-45.36A299.48,299.48,0,0,0,775.37,351l-53.84,27-49.36-33.57,5.33-60a297.13,297.13,0,0,0-64.59-19l-28,53.43-59.7,1.4L494.58,268.3a298.52,298.52,0,0,0-65.46,23.13l8.79,59.63-47.44,36.29-55.29-23.86a297.78,297.78,0,0,0-39.28,57.15l42.07,43-17,57.21L262.26,534.1a303.45,303.45,0,0,0-1.13,36.22,323,323,0,0,0,2.95,33.07l59.4,10,19.95,56.25L303.59,714.9A303.59,303.59,0,0,0,346,770l53.94-26.86,49.27,33.71L443.62,837a301.07,301.07,0,0,0,66.57,19.63L538,803l59.69-1.65,30.76,51.88a302,302,0,0,0,65.4-23.39l-9-59.6,47.28-36.5,55.35,23.72a298.58,298.58,0,0,0,39.16-57.28l-42.31-42.85L801.1,600l58.8-13.33A304.1,304.1,0,0,0,860.84,551.37ZM649.7,661.85a134.42,134.42,0,0,1-189.8-12.28C411,593.64,416.44,508.8,472.32,459.91A134.39,134.39,0,1,1,649.7,661.85Z"/><path class="cls-5" d="M708.83,431C637.14,349.37,512.64,341.24,431,412.93A196.83,196.83,0,0,0,413.2,690.76c71.68,81.61,196.09,89.64,277.68,18S780.55,512.6,708.83,431ZM678.14,694.22c-73.59,64.66-185.81,57.42-250.46-16.2a177.53,177.53,0,0,1,16-250.59c73.66-64.67,186-57.34,250.63,16.3S751.8,629.55,678.14,694.22Z"/><path class="cls-4" d="M447.24,775.55l2,1.34-4.58,59.55-1,.51a301.07,301.07,0,0,0,66.57,19.63l-.54-1L538,803l59.69-1.65,31.35,50.85-.59,1a302,302,0,0,0,65.4-23.39l-1-.43-8-59.17,47.28-36.5,55.29,22.71.06,1a298.58,298.58,0,0,0,39.16-57.28l-1,.27-41.28-43.12L801.1,600l58-14.07.76.74a304.1,304.1,0,0,0,.94-35.27,283.7,283.7,0,0,0-3.11-34.09l-.63.86-16.66-3C728.91,675.94,571.81,745.65,447.24,775.55Z"/><path class="cls-6" d="M690.88,708.72a195.82,195.82,0,0,0,57.79-88.55q-16.38,14.94-33.26,28.24a177.32,177.32,0,0,1-153.63,89.88q-20.19,8.46-40,15.37A196.5,196.5,0,0,0,690.88,708.72Z"/><path class="cls-4" d="M440,338.05l-5.72-48.31s28.57-15.07,50.39-18.71C484.68,271,449.36,284,440,338.05Z"/><path class="cls-7" d="M143.8,193.93c7.11-2,70.49-18.12,122.32,28.5,41.76,37.56,59.25,100.82,44.4,160.91"/></g></svg>