<svg xmlns="http://www.w3.org/2000/svg" version="1.1" xmlns:xlink="http://www.w3.org/1999/xlink" xmlns:svgjs="http://svgjs.dev/svgjs" width="1440" height="560" preserveAspectRatio="none" viewBox="0 0 1440 560"><g mask="url(&quot;#SvgjsMask2091&quot;)" fill="none"><rect width="1440" height="560" x="0" y="0" fill="url(&quot;#SvgjsRadialGradient2092&quot;)"></rect><path d="M1440 0L1343.37 0L1440 270.7z" fill="rgba(255, 255, 255, .1)"></path><path d="M1343.37 0L1440 270.7L1440 401.34L725.0199999999999 0z" fill="rgba(255, 255, 255, .075)"></path><path d="M725.02 0L1440 401.34L1440 409.02L724.8 0z" fill="rgba(255, 255, 255, .05)"></path><path d="M724.8 0L1440 409.02L1440 460.01L640.05 0z" fill="rgba(255, 255, 255, .025)"></path><path d="M0 560L459.95 560L0 468.67z" fill="rgba(0, 0, 0, .1)"></path><path d="M0 468.67L459.95 560L670.91 560L0 335.66z" fill="rgba(0, 0, 0, .075)"></path><path d="M0 335.66L670.91 560L864.27 560L0 258.56000000000006z" fill="rgba(0, 0, 0, .05)"></path><path d="M0 258.56000000000006L864.27 560L1104.72 560L0 139.31000000000006z" fill="rgba(0, 0, 0, .025)"></path></g><defs><mask id="SvgjsMask2091"><rect width="1440" height="560" fill="#ffffff"></rect></mask><radialGradient cx="0%" cy="0%" r="1545.06" gradientUnits="userSpaceOnUse" id="SvgjsRadialGradient2092"><stop stop-color="rgba(4, 3, 3, 1)" offset="0"></stop><stop stop-color="rgba(204, 33, 33, 1)" offset="1"></stop><stop stop-color="rgba(158, 0, 0, 1)" offset="1"></stop></radialGradient></defs></svg>